<svg width="32" height="32" viewBox="0 0 32 32" fill="none" xmlns="http://www.w3.org/2000/svg">
<g id="&#208;&#186;&#208;&#187;&#208;&#184;&#208;&#186;">
<path id="Vector 2" d="M5 17L9 13L9.5 12.5V11.5V4.5L10 2L10.5 1.5L12 1L13 1.5L13.5 2.5V7L14 11L14.5 10.5L16.5 10L17.5 10.5L18.5 12.5V11.5L20.5 11H21.5L22 11.5L23 13L23.5 12.5L25 12L26.5 12.5L27 13.5V19V24.5V26L26.5 27.5L25.5 29.5L22.5 31H12.5L9.5 29L5 17Z" fill="white" stroke="white"/>
<path id="Vector" d="M24.9941 11.0936H24.9454C24.2778 11.0895 23.6334 11.3361 23.1393 11.7849C22.7451 10.6736 21.7284 9.87172 20.5368 9.87172C19.8058 9.87172 19.1064 10.1702 18.6006 10.6978C18.1404 9.75243 17.2072 9.09576 16.1336 9.09576H16.0818C15.4965 9.09465 14.9284 9.29561 14.4741 9.66463V2.92935C14.4741 1.31389 13.2193 0 11.6903 0C10.1626 0 8.91336 1.31277 8.91225 2.92712L8.90333 11.7982L7.14948 13.4474L5.39563 15.0966C4.37886 16.0479 4.04217 17.5212 4.54442 18.8198L8.20681 28.3517C8.21433 28.3718 8.22325 28.3743 8.23301 28.3935C9.39639 30.6286 11.61 31.9999 14.0103 31.9999H21.1598C24.7979 31.9999 27.7607 28.8648 27.7643 24.9901C27.766 23.2631 27.7677 21.983 27.7691 20.9369C27.7727 18.123 27.7741 17.0917 27.7668 13.9937C27.7629 12.3827 26.5193 11.0936 24.9941 11.0936ZM26.6272 20.9439C26.626 21.9902 26.6241 23.2617 26.6227 24.989C26.6196 28.2349 24.1688 30.8583 21.1598 30.8583H14.0103C12.0473 30.8583 10.2303 29.7342 9.26037 27.8943L5.60941 18.4017C5.27439 17.5376 5.49876 16.5566 6.17633 15.9239L8.89971 13.3644L8.89636 17.869C8.89608 18.1848 9.15111 18.4415 9.4669 18.4429C9.78325 18.4427 10.0402 18.1871 10.0422 17.871L10.0503 12.0477V12.0432L10.0525 2.92796C10.0533 1.94324 10.7936 1.14164 11.6928 1.14164C12.5919 1.14164 13.3325 1.94352 13.3325 2.92935V11.9382C13.3325 11.9694 13.3311 12.0009 13.3311 12.0326C13.3311 12.0463 13.3325 12.0597 13.3325 12.0733V15.9253C13.3325 16.2405 13.5881 16.4961 13.9033 16.4961C14.2185 16.4961 14.4741 16.2405 14.4741 15.9253V11.9574C14.4741 11.0069 15.2055 10.238 16.0818 10.238H16.1336C17.0325 10.238 17.7563 11.0479 17.7563 12.0338V15.5582C17.7563 15.8734 18.0119 16.129 18.3271 16.129C18.6424 16.129 18.898 15.8734 18.898 15.5582V12.7924C18.898 11.8066 19.6371 11.0047 20.5416 11.0047C21.4407 11.0047 22.1802 11.8066 22.1802 12.7924V15.4013C22.1802 15.7165 22.4358 15.9721 22.751 15.9721C23.0662 15.9721 23.3218 15.7165 23.3218 15.4013V13.9884C23.3218 13.0029 24.0459 12.2353 24.9454 12.2353H24.9941C25.8911 12.2353 26.6227 13.0176 26.6249 14.0007C26.6325 17.0964 26.6308 18.1316 26.6272 20.9439Z" fill="#383838"/>
</g>
</svg>
