<svg width="10" height="10" viewBox="0 0 10 10" fill="none" xmlns="http://www.w3.org/2000/svg">
<g id="Message">
<path id="Message_2" fill-rule="evenodd" clip-rule="evenodd" d="M7.46968 0.5C8.14018 0.5 8.78518 0.765 9.25968 1.2405C9.73468 1.715 10.0002 2.355 10.0002 3.025V6.975C10.0002 8.37 8.86518 9.5 7.46968 9.5H2.53018C1.13468 9.5 0.000183105 8.37 0.000183105 6.975V3.025C0.000183105 1.63 1.12968 0.5 2.53018 0.5H7.46968ZM8.26518 3.77L8.30518 3.73C8.42468 3.585 8.42468 3.375 8.29968 3.23C8.23018 3.1555 8.13468 3.11 8.03518 3.1C7.93018 3.0945 7.83018 3.13 7.75468 3.2L5.50018 5C5.21018 5.2405 4.79468 5.2405 4.50018 5L2.25018 3.2C2.09468 3.085 1.87968 3.1 1.75018 3.235C1.61518 3.37 1.60018 3.585 1.71468 3.735L1.78018 3.8L4.05518 5.575C4.33518 5.795 4.67468 5.915 5.03018 5.915C5.38468 5.915 5.73018 5.795 6.00968 5.575L8.26518 3.77Z" fill="white"/>
</g>
</svg>
