<svg width="26" height="26" viewBox="0 0 26 26" fill="none" xmlns="http://www.w3.org/2000/svg">
<g id="secure-svgrepo-com (1) 1">
<path id="Vector" d="M24.2915 3.63881C24.2448 3.30359 24.0036 3.02784 23.6776 2.93721L13.2277 0.031098C13.0787 -0.010366 12.9214 -0.010366 12.7723 0.031098L2.32245 2.93721C1.9964 3.02784 1.7552 3.30347 1.70853 3.63881C1.64792 4.07464 0.265217 14.3722 3.81175 19.495C7.3541 24.6116 12.5798 25.9228 12.8005 25.9762C12.8661 25.992 12.9329 25.9998 13 25.9998C13.0671 25.9998 13.1339 25.9919 13.1995 25.9762C13.4203 25.9228 18.646 24.6116 22.1883 19.495C25.7348 14.3723 24.3521 4.07475 24.2915 3.63881ZM19.7388 9.65064L12.611 16.7785C12.4451 16.9444 12.2276 17.0274 12.0102 17.0274C11.7928 17.0274 11.5753 16.9445 11.4094 16.7785L7.00233 12.3714C6.84293 12.2121 6.75343 11.996 6.75343 11.7706C6.75343 11.5453 6.84305 11.3291 7.00233 11.1699L7.87738 10.2948C8.20921 9.9631 8.74722 9.96298 9.07893 10.2948L12.0102 13.2261L17.6622 7.57393C17.8215 7.41453 18.0377 7.32503 18.263 7.32503C18.4883 7.32503 18.7045 7.41453 18.8638 7.57393L19.7388 8.44898C20.0706 8.78081 20.0706 9.31882 19.7388 9.65064Z" fill="white"/>
</g>
</svg>
