<svg width="26" height="26" viewBox="0 0 26 26" fill="none" xmlns="http://www.w3.org/2000/svg">
<g id="time-svgrepo-com (3) 1">
<path id="Vector" d="M14.6896 4.21325V2.19426H15.6111C16.217 2.19426 16.7083 1.70301 16.7083 1.09713C16.7083 0.491252 16.2171 0 15.6111 0H10.3888C9.78292 0 9.29167 0.491252 9.29167 1.09713C9.29167 1.70301 9.78292 2.19426 10.3888 2.19426H11.3104V4.21325C6.06715 5.02811 2.04138 9.57339 2.04138 15.0415C2.04138 21.0841 6.95741 26 13 26C19.0425 26 23.9585 21.0841 23.9585 15.0415C23.9586 9.57348 19.9328 5.0282 14.6896 4.21325ZM21.7287 14.2474C21.747 14.451 21.6789 14.6529 21.5411 14.8038C21.4033 14.9548 21.2083 15.0415 21.0039 15.0415H13.7279C13.3259 15.0415 13.0001 14.7157 13.0001 14.3137V7.0377C13.0001 6.8332 13.0862 6.63808 13.2372 6.5002C13.3883 6.36231 13.5904 6.29455 13.7941 6.3129C17.9944 6.6918 21.3497 10.0471 21.7287 14.2474Z" fill="white"/>
</g>
</svg>
